#!OML:ASF F:\VICON\USERDATA\INSTALL\rory3\rory3.ASF
:FULLY-SPECIFIED
:DEGREES
1
root -1.695427538333916 17.10220950837097 -30.08738297185178 3.2023559915582456 -5.298843515882872 -3.8874188572053265
lfemur -13.855303799978994 8.654586422524115 -13.73551238457915
ltibia 102.10898548288685
lfoot 21.168288915401632 -15.7173928788628
ltoes 12.748976412193013
rfemur -30.298593737915468 7.297112713260216 30.843293565629065
rtibia 56.90000287438987
rfoot -18.779985268122672 -8.90624922680933
rtoes -3.7099648384241224
lowerback 17.288888644386937 -0.46363858901486044 1.9990373568622437
upperback 1.0901587734547842 0.011014167848222511 2.6859158084112553
thorax -8.538509130352795 -0.018459347458674502 1.7598228220131247
lowerneck -18.307906022207177 -2.4124939405572796 -2.3081803746719536
upperneck 15.254690509552516 -2.9039745545925664 1.215735873739483
head 7.768834774085884 -1.3966736432487936 0.4332177628034834
lclavicle -2.049056047455445e-17 4.2580989887646705e-16
lhumerus -45.78950575534972 -10.26139158379507 96.10828796674767
lradius 86.51070977253883
lwrist 33.94250323598467
lhand -29.903397451014637 0.3075780663835581
lfingers 7.125019999999998
lthumb -3.224167447927385 30.262904090866122
rclavicle -2.049056047455445e-17 4.2580989887646705e-16
rhumerus -48.71339687371849 8.72410471183998 -96.14849475581194
rradius 96.89730567242736
rwrist -18.050106380388435
rhand -19.935894509902802 40.44470202816012
rfingers 7.125019999999998
rthumb 6.401745489130177 10.561502175695678
2
root -1.7071471958696929 17.02601080278186 -29.631983173484045 3.5255235084481016 -4.6626751774279676 -4.440867200581554
lfemur -17.59840198207501 9.221535203061027 -12.287014544300225
ltibia 105.31998439320674
lfoot 20.205189499162458 -15.85329267555727
ltoes 11.414577730787897
rfemur -28.966394311103834 7.38561256112841 31.650692283876822
rtibia 57.3922027142014
rfoot -20.45168431602127 -10.357596279290158
rtoes -5.094243859403156
lowerback 17.58478684226571 -0.773781435054451 1.7689479479799277
upperback 0.24572405999254104 -0.3189488913171896 3.542448967804045
thorax -9.622880935463066 -0.14182215086959937 2.93293767616536
lowerneck -16.088018923898083 -2.1552656868257243 -3.388727216645907
upperneck 14.936692344850952 -2.357226993871884 1.271935460259404
head 7.287495133602825 -1.2048156411848927 0.712074618448255
lclavicle -2.0490550982247026e-17 4.2580991336671125e-16
lhumerus -47.746604210737274 -8.118886842129927 96.86968565433263
lradius 84.8985107698276
lwrist 33.30790618677578
lhand -30.86279483985572 -2.0121534640257615
lfingers 7.125019999999998
lthumb -4.150634835712481 27.927206604520222
rclavicle -2.0490550982247026e-17 4.2580991336671125e-16
rhumerus -48.328997128914565 11.254001080901155 -96.09769495315007
rradius 97.60940510849095
rwrist -18.236505838262627
rhand -19.71329565419068 40.50740182094039
rfingers 7.125019999999998
rthumb 6.616584344902893 10.630701946207887
3
root -1.7093371318768047 16.951812063218714 -29.174983375824795 3.6410026211455686 -4.185056424873105 -4.226087843475505
lfemur -21.046300307540236 9.75528405500844 -12.062414879180015
ltibia 107.8949835193586
lfoot 19.215190099228096 -16.003092451457405
ltoes 6.548672539064299
rfemur -27.555994917938257 7.348422625058143 31.633892310546905
rtibia 57.79020258467069
rfoot -21.806183544578143 -11.850193247997154
rtoes -7.487522166775034
lowerback 17.7399858970504 -0.6671271757745885 1.6118783515040058
upperback 0.07105629456535983 -0.19895637891756457 3.50799924293295
thorax -9.907686156659734 -0.07543039485342484 2.963287543036199
lowerneck -16.2426180253885 -2.2866647947848553 -3.3856972815827637
upperneck 15.179890941251642 -2.5470761468720076 1.347564903827052
head 7.399392725313751 -1.288374771031967 0.7133395815034631
lclavicle -2.049053174115741e-17 4.2580994498194004e-16
lhumerus -48.67520347785333 -7.935847291362655 96.97388533787131
lradius 83.74391148405014
lwrist 33.11420708745061
lhand -30.26029647965481 -6.547368635826944
lfingers 7.125019999999998
lthumb -3.5687864762591124 23.402511473951478
rclavicle -2.049053174115741e-17 4.2580994498194004e-16
rhumerus -45.9679986963389 12.232499676547768 -96.15189474260427
rradius 98.09660472266054
rwrist -18.556804906702016
rhand -19.5942962659169 40.495001861921644
rfingers 7.125019999999998
rthumb 6.731493732897882 10.622001975059677
4
root -1.708267163142735 16.88361322173345 -28.726783574269312 3.749131790317522 -4.2915361467692605 -3.9413386958083567
lfemur -24.235298758744918 10.795181818268567 -12.127514782115576
ltibia 110.06698278227204
lfoot 17.51409113031071 -15.97209249783321
ltoes 1.2431077817933378
rfemur -25.856295649246064 7.726701974793537 31.447692606140507
rtibia 57.93940253611294
rfoot -22.783782987794964 -12.751491417564091
rtoes -8.46796147336672
lowerback 17.643886482328693 -0.2690019407778954 1.6346582929805553
upperback 0.2733406908744291 0.27941167719078464 3.0869326057350204
thorax -9.643700586126016 0.13773613748325553 2.358080197767623
lowerneck -17.086013123687465 -2.534773110429737 -2.7946099496275867
upperneck 15.135391198078 -3.031173987100424 1.5038037543230123
head 7.534319821377695 -1.4645729361714441 0.6055067308936356
lclavicle -2.0490574328176966e-17 4.258098837274881e-16
lhumerus -49.26580301173096 -8.697105423011983 96.65938629302568
lradius 83.32681174206344
lwrist 32.93920790117334
lhand -29.514798508651033 -9.44217555400988
lfingers 7.125019999999998
lthumb -2.8488485061553885 20.518514577679927
rclavicle -2.0490574328176966e-17 4.258098837274881e-16
rhumerus -43.58290027976278 12.483399316453475 -96.45569356246014
rradius 99.23370382215207
rwrist -18.46110518503592
rhand -20.15479338463499 39.7231044130048
rfingers 7.125019999999998
rthumb 6.190336615089448 9.833544589827612
5
root -1.706797206096864 16.841113943681783 -28.27128377594601 3.89243068925714 -4.44000575899617 -3.6947794338283386
lfemur -27.53749715497198 11.768079725640245 -12.346114456181807
ltibia 111.67598223624422
lfoot 15.41189240451075 -15.52109317252637
ltoes -3.8020372328131984
rfemur -23.893596493711474 8.17071121153882 31.249492920784185
rtibia 57.77520258955248
rfoot -23.563882543496224 -13.265390373894348
rtoes -7.766261969638426
lowerback 17.334388367278066 0.06077256891863203 1.3957789066803774
upperback 0.44074645336402213 0.6362132272955736 2.9386837897077696
thorax -9.29525643273962 0.3139684280730608 2.2349407379167
lowerneck -17.621710010287856 -2.7052619530168913 -2.7154916452724995
upperneck 15.139191176146756 -3.3013527817149995 1.6813024484028447
head 7.63542764530881 -1.5676318629550647 0.6138074884598674
lclavicle -2.0490567401365708e-17 4.2580989492442267e-16
lhumerus -50.13160232841101 -9.022244625025044 96.6958861821731
lradius 83.4309116776684
lwrist 32.634909316120925
lhand -29.8751975277654 -7.478717644310944
lfingers 7.125019999999998
lthumb -3.1969775245905496 22.477012469964187
rclavicle -2.0490567401365708e-17 4.2580989492442267e-16
rhumerus -41.544101633284484 13.162398341945604 -96.41249373027524
rradius 100.83800255165188
rwrist -18.17680601189412
rhand -20.528791462066863 39.54800499169978
rfingers 7.125019999999998
rthumb 5.829308537917479 9.648215204437037
6
root -1.7031773118750633 16.848613816279137 -27.775383995510204 4.149998710191386 -4.524715537751105 -3.8134290786771863
lfemur -30.559895687088932 12.712377694528179 -12.16181473097408
ltibia 112.52998194643214
lfoot 13.510393557061121 -15.569093100718675
ltoes -6.72992433960215
rfemur -21.892097354870867 8.496390651693787 31.514692499777617
rtibia 57.274602752474806
rfoot -24.150882209175755 -14.149388578595513
rtoes -8.72158129399601
lowerback 16.88999107380957 0.23585955292917304 1.4281288235709124
upperback 0.34193977399343306 0.8737902618799118 3.049322906100721
thorax -9.162668657456216 0.42928430953716396 2.276090557413741
lowerneck -17.453710986676008 -2.7565816046185825 -2.8903678973657496
upperneck 15.158491064759145 -3.349092568726997 1.7745417624084932
head 7.618918000633677 -1.5926016029297099 0.6691178730524968
lclavicle -2.0490550725705152e-17 4.2580989426588666e-16
lhumerus -51.64890113090425 -8.87414498850498 97.00018525799673
lradius 83.92661137103391
lwrist 32.734708852066476
lhand -31.03249437799031 -1.714213781212936
lfingers 7.125019999999998
lthumb -4.314544373562441 28.221806287475015
rclavicle -2.0490550725705152e-17 4.2580989426588666e-16
rhumerus -39.22210317481745 14.399996565729205 -96.20739452700849
rradius 101.97600165043066
rwrist -18.475205144027477
rhand -19.825295078448352 39.71670443415641
rfingers 7.125019999999998
rthumb 6.508514920478404 9.836674579447603
